<?xml version="1.0"?>
<svg xmlns="http://www.w3.org/2000/svg" xmlns:xlink="http://www.w3.org/1999/xlink" xmlns:svgjs="http://svgjs.com/svgjs" version="1.1" width="512" height="512" x="0" y="0" viewBox="0 0 384 384" style="enable-background:new 0 0 512 512" xml:space="preserve"><g><path xmlns="http://www.w3.org/2000/svg" d="m304 384c8.832031 0 16-7.167969 16-16v-272c0-4.238281-1.6875-8.3125-4.6875-11.3125l-80-80c-3-3-7.074219-4.6875-11.3125-4.6875h-208c-8.832031 0-16 7.167969-16 16v352c0 8.832031 7.167969 16 16 16zm-272-352h185.375l70.625 70.625v249.375h-256zm0 0" fill="#ffffff" data-original="#000000" style=""/><path xmlns="http://www.w3.org/2000/svg" d="m240 112h-160c-8.832031 0-16 7.167969-16 16v64c0 8.832031 7.167969 16 16 16h160c8.832031 0 16-7.167969 16-16v-64c0-8.832031-7.167969-16-16-16zm-16 64h-128v-32h128zm0 0" fill="#ffffff" data-original="#000000" style=""/><path xmlns="http://www.w3.org/2000/svg" d="m80 264h96c8.832031 0 16-7.167969 16-16s-7.167969-16-16-16h-96c-8.832031 0-16 7.167969-16 16s7.167969 16 16 16zm0 0" fill="#ffffff" data-original="#000000" style=""/><path xmlns="http://www.w3.org/2000/svg" d="m224 288h-144c-8.832031 0-16 7.167969-16 16s7.167969 16 16 16h144c8.832031 0 16-7.167969 16-16s-7.167969-16-16-16zm0 0" fill="#ffffff" data-original="#000000" style=""/></g></svg>
