<?xml version="1.0"?>
<svg xmlns="http://www.w3.org/2000/svg" xmlns:xlink="http://www.w3.org/1999/xlink" xmlns:svgjs="http://svgjs.com/svgjs" version="1.1" width="512" height="512" x="0" y="0" viewBox="0 0 64 64" style="enable-background:new 0 0 512 512" xml:space="preserve" class=""><g><path xmlns="http://www.w3.org/2000/svg" d="m54 26h-12v-12c0-1.104-.896-2-2-2h-16c-1.104 0-2 .896-2 2v6h-12c-1.104 0-2 .896-2 2v28c0 1.104.896 2 2 2h14 16 14c1.104 0 2-.896 2-2v-22c0-1.104-.896-2-2-2zm-42-2h10v24h-10zm14-2v-6h12v12 20h-12zm26 26h-10v-18h10z" fill="#ffffff" data-original="#000000" style="" class=""/></g></svg>
