<?xml version="1.0" encoding="utf-8"?>
<!-- Generator: Adobe Illustrator 24.0.1, SVG Export Plug-In . SVG Version: 6.00 Build 0)  -->
<svg version="1.1" id="Layer_1" xmlns="http://www.w3.org/2000/svg" xmlns:xlink="http://www.w3.org/1999/xlink" x="0px" y="0px"
	 viewBox="0 0 2932 1000" style="enable-background:new 0 0 2932 1000;" xml:space="preserve">
<style type="text/css">
	.st0{fill:#1BB14D;}
</style>
<g>
	<path id="Logo_green" class="st0" d="M447.7,60.3c2.7,0,5.4,0.2,7.8,0.6c5.1,0.9,12.1,3.1,16.4,8.3c2.6,3.2,4.6,7.7,5.6,12.4
		c0.6,3.1,0.9,8.9-0.1,14.4c-1.7,9.8-8.4,22.3-13.2,26.9c-1.4,1.3-1.4,1.3-2.9,1.6c-2,0.4-2.6,0.5-9.9,1.2
		c-11.7,1.2-16.5,1.9-25.7,4.2c-32.8,8.2-63.3,28.3-85.9,56.6c-23.8,29.9-38.6,67.2-43.9,111.1c-1.3,10.6-1.9,26.1-1.6,38.2
		c-6.5-18-10.8-36.9-12.5-56.1c-1.3-14-1.2-29.3,0.2-43.1c4.4-42.3,22.2-81.9,51.6-114.3c3.4-3.8,12.3-12.6,15.8-15.7
		c16.8-14.7,34.3-26.1,53.6-34.6C420.6,64.2,435.6,60.3,447.7,60.3 M666.7,218.9c8.2,0,16.5,0.5,24.8,1.5
		c44.4,5.4,88.8,26.4,118.6,56.2c5.2,5.2,7.5,8,10.1,11.5c5.6,7.6,9,15.6,9.6,22.9c0.7,8-2.8,15.2-10.5,21.4
		c-3.5,2.8-10.4,6.4-19,7.9c-3.8,0.7-3.8,0.7-10,0.7l-0.9,0c-1.7,0-5.8,0-6.5,0l-0.6-0.1c-2.6-0.4-5.8-1.1-6.8-2.1
		c-1-1-1.8-1.9-6.6-8.8c-8.1-11.9-14.9-20.7-25.8-30.2c-25.2-22.3-56.9-36.2-91.6-40.2c-6.8-0.8-14.2-1.2-21.9-1.2
		c-7.6,0-15,0.4-22.2,1.1c-33,3.4-67.9,15.3-98.2,33.2c25.7-29.1,59.1-51.5,94.5-63.4c6.6-2.2,10.2-3.3,16.1-4.7
		C635.1,220.9,650.8,218.9,666.7,218.9 M84.3,253.3c1.3,0,2.3,0,2.8,0.1c6.9,1.2,12.5,3.7,18,8.3c9.2,7.6,16.5,20.6,17.5,26.4
		c0,0.4,0,1-0.1,1.5c-0.4,1.4-1,3-4.1,9.9c-3.7,8.3-5.7,12.9-7.8,19.7c-6.9,21.2-8.8,45.8-5.4,69.3c4.1,28.7,15.5,56,33.8,81.2
		c13.3,18.3,30.8,35.7,50.5,50.5c10.4,7.8,21.2,14.6,32.2,20.5c-33.1-5.9-65.2-19.4-92-38.9c-13.5-9.8-26.5-22-36.6-34.3
		c-24.5-29.7-40.5-67.6-45.1-106.9c-1.2-10.3-1.7-25.3-1.2-34.9c0.7-13.7,2.7-26.7,5.8-37.7c4.5-16.3,12.2-27.9,21.6-32.7
		c2-1,3.4-1.5,5.6-1.9C80.6,253.3,82.2,253.3,84.3,253.3 M80.4,253.3L80.4,253.3L80.4,253.3 M652.6,460.8c2.3,0.5,4.5,1,6.8,1.5
		c55,12.9,102.8,45.8,131,90.3c18.1,28.5,28.8,60.7,31.8,95.6c0.4,4.9,0.6,22.1,0.3,27.4c-1.2,21.8-5.6,41.8-12,54.9
		c-5.2,10.7-12.8,18.2-20.7,20.4c-0.4,0.1-0.8,0.2-1.2,0.3c-0.4,0-1.6,0.1-4.4,0.1c-0.5,0-0.9,0-1.3,0c-1.1,0-2,0-2.7,0
		c-10.9-2-20.2-8.9-27.8-20.5c-3.4-5.2-5.6-9.9-6.7-14.1c0-0.8,0-1.8,0-2.7c0.5-1.4,1.6-4.1,4.7-10.6c7.3-15.2,10.9-26,13.5-40
		c2-10.8,2.3-16.8,2.3-28.2c0-11.9-0.5-17.6-2.2-28c-8.1-47.9-38-93.4-84.1-128.2C671.3,472.2,662.1,466.2,652.6,460.8 M83.7,663.8
		c6,0,9.9,1,11.6,1.7c0.2,0.2,0.4,0.4,0.8,0.8c1.4,1.4,2,2,8.2,10.6c4.8,6.7,7.9,10.5,12.6,15.7c22.1,24,54.8,41.4,89.6,47.6
		c10.3,1.8,21.3,2.8,32.6,2.8c7.7,0,15.5-0.4,23.2-1.3c34.1-3.9,70-16.8,100.7-35.9c-8,9.5-16.7,18.3-26.1,26.3
		c-31.2,26.7-67.9,43.7-106.3,49.2c-9.1,1.3-18.4,2-27.9,2c-18.5,0-37-2.5-55-7.4c-28.7-7.9-55.5-21.8-77.7-40.3
		c-13.4-11.2-21.5-21.2-25.6-31.3c-2.3-5.8-3-11.4-2.1-16.2c0.7-3.6,3.5-9.1,8-13.2c4.7-4.2,12.9-9.9,29.9-10.9
		C81.5,663.8,82.6,663.8,83.7,663.8 M578.7,669.1c5.1,15.2,8.6,30.9,10.4,46.9c1.5,13.8,1.7,31,0.5,44
		c-3.1,33.1-12.9,62.4-30.1,89.3c-24.2,38.1-60.4,67.6-101.8,83.1c-11.5,4.3-20.1,6.6-29.7,7.9c-2,0.1-7.6,0.3-11.6,0.3
		c-0.2,0-0.3,0-0.5,0c-3.5-0.4-5-0.7-5.9-0.9c-12.7-2.8-16.7-9.4-19-15.4c-3.7-10-2.2-22.3,4.4-34.8c4.7-8.9,8.9-12.5,9.9-13
		c0.8-0.3,3-0.7,13.7-1.5c21.3-1.6,38.1-6.1,56.4-15c39.8-19.5,70.2-54.4,87.8-100.9c5.3-13.9,10.4-33.5,12.5-47.7
		c1-6.9,1.3-9.3,1.9-14.7C578.3,687.6,578.7,678.3,578.7,669.1 M745.9,712.7L745.9,712.7L745.9,712.7 M447.7,19.5
		c-17.9,0-38.2,5.1-61.3,15.3c-23,10.2-44.3,23.9-64,41.3c-4.7,4.1-14.6,14-19.1,18.9c-35.3,39-56.6,86.3-61.9,137.5
		c-1.7,16.4-1.8,34.4-0.3,51c3.5,37.9,15.4,75.5,34.3,108c26.9,46.3,68.4,84.7,117,108.3c8.8,4.3,8.9,4.3,9,4.9
		c0.1,0.6-1.6,1.7-6.6,4.4c-15,7.9-29.8,12.9-45.6,15.5c-8.2,1.3-16.4,2-24.7,2c-37.7,0-76.3-13.5-110.5-39
		c-16.5-12.3-31-26.8-41.9-41.8c-14.4-19.7-23.3-41-26.4-63c-2.5-17.5-1.1-35.5,3.9-50.9c1.5-4.7,2.7-7.6,6.3-15.6
		c4.4-9.8,5.5-12.9,6.8-18.2c0.9-3.8,1.2-10.5,0.7-14.6c-2.2-17.4-15.7-39.8-32.2-53.3c-11.5-9.4-24.1-15-38.6-17.2
		c-1.7-0.3-4.8-0.4-8.1-0.4c-3.9,0-8,0.2-10.2,0.5c-6.7,1.1-12.3,2.9-18.2,5.9c-20,10.1-34.8,30.4-42.5,58.2
		c-3.8,13.8-6.3,29.7-7.2,46.3c-0.7,12-0.1,29.3,1.4,41.9c5.5,47.1,24.6,92.2,54.1,128c12.3,14.9,27.7,29.4,44,41.3
		c37.9,27.7,84.3,45,131.5,49.2c7.3,0.6,14.9,1,22.6,1c10.1,0,20.3-0.5,29.9-1.6c29.2-3.3,58.2-11.5,85.5-24.2
		c15-7,29.1-15.2,44.2-25.8c0.9-0.6,1.5-1,1.9-1c0.7,0,0.7,1.4,0.7,5.5c0,24.1-7,49.7-19.7,71.6C390.4,630,374,648,353.5,662.9
		c-27.8,20.3-63.4,34.4-95.9,38.2c-6.2,0.7-12.4,1.1-18.5,1.1c-8.8,0-17.5-0.7-25.4-2.1c-26.2-4.7-50.6-17.5-66.8-35.1
		c-3.6-3.9-5.7-6.6-9.6-11.9c-6.8-9.4-8.8-11.9-12.4-15.6c-4-4-6.9-6.2-11.3-8.4c-7.9-4-18.4-6.1-30-6.1c-1.8,0-3.7,0.1-5.6,0.2
		c-22.3,1.3-40.5,8.3-54.9,21.2c-10.5,9.4-18.1,22.5-20.7,35.5c-2.5,12.6-1.1,26.1,4.2,39.4c6.7,16.8,18.5,31.8,37.3,47.5
		c26.8,22.4,58.5,38.9,93,48.3c21.5,5.9,43.8,8.9,65.8,8.9c11.4,0,22.7-0.8,33.7-2.4c45.8-6.6,90.1-27.1,127-58.6
		c21.1-18,39.8-40,53.9-63.3c20.3-33.5,33.6-72.9,37.7-112.4c1.9-17.7,2-37.3,0.4-54.4c-0.7-7.1-0.7-7.3-0.1-7.5c0,0,0.1,0,0.1,0
		c1.6,0,12.4,6.6,19.9,12.2c17.6,13.1,31.5,29.3,42.2,49.2c9.6,17.8,16.1,38.6,18.8,59.8c1.8,14.7,2,30.8,0.4,46
		c-0.5,4.7-0.7,6.6-1.6,12.9c-1.7,11.3-6,28-10.3,39.2c-13.9,36.8-37.1,63.8-67.6,78.7c-13.6,6.7-25.4,9.8-41.5,11
		c-14.5,1.1-19.4,1.9-25.3,4.2c-11.8,4.5-22.7,15.7-31.3,32.1c-12,22.9-14.3,47-6.5,68c8.1,21.6,24.9,35.8,48.5,41
		c3,0.7,6.3,1.2,11.4,1.8h0c0.6,0.1,2,0.1,3.7,0.1c5.2,0,13.9-0.3,16.3-0.6c12.9-1.7,24.6-4.8,39.2-10.2
		c49.5-18.5,93.1-54.1,121.9-99.4c20.5-32.3,32.6-68,36.3-107.4c1.5-15.8,1.3-35.6-0.6-52.2c-3.3-30.4-11.9-59.9-25.5-87.7
		c-23.9-48.7-64.6-91-113.2-117.8c-4.4-2.4-15.4-7.9-19.6-9.8c-3.3-1.5-3.4-1.8-0.1-3.7c16.3-9.7,36.7-16.6,55.6-18.9
		c6.6-0.8,10.5-1.1,16.8-1.1c1.5,0,3.2,0,5.1,0c9.3,0.1,13,0.4,21.1,1.6c29.5,4.3,59.7,17.3,86,37.2c37.8,28.5,62,64.8,68.4,102.5
		c1.4,8.1,1.6,11.6,1.6,21.2c0,9.7-0.3,13.2-1.7,20.7c-1.9,10.4-4.5,17.9-10.2,29.8c-5.3,11.1-7,15.4-8.2,21c-0.7,3.3-0.7,13,0,16.6
		c1.9,9.7,6.1,19.5,12.8,29.7c14,21.5,33.2,34.8,55.7,38.5c2.4,0.4,4.4,0.5,10.2,0.5c0.1,0,0.2,0,0.3,0c8,0,10.8-0.3,16.5-2
		c19.2-5.5,35.8-20.4,46.2-41.7c8.9-18.2,14.5-43,16.1-70.5c0.4-7.4,0.2-26.4-0.4-33.2c-3.6-41.5-16.4-79.8-38-113.9
		C791,477.4,734,437.9,668.7,422.6c-19.9-4.7-38.4-6.8-58.8-6.8c-1.6,0-3.2,0-4.8,0c-10.4,0.2-13.6,0.3-23,1.3
		c-46.6,4.7-94,22.5-131.6,49.6c-1.8,1.3-2.9,2.2-3.6,2.2c-1,0-0.8-2-0.7-7.2c0.3-12.5,2-24.3,5.2-35.7c9.7-35.4,33-67.2,66.1-90.2
		c27.6-19.1,62.7-32.5,94.2-35.8c5.8-0.6,12-0.9,18-0.9c6,0,11.9,0.3,17.2,0.9c26.4,3.1,50.3,13.5,69.3,30.2
		c6.9,6.1,11.5,11.5,19.1,22.6c5.2,7.6,7.5,10.7,10.8,14.1c7.4,7.7,16.5,12,29.9,14.1c3.5,0.6,5,0.6,13.4,0.6c0.3,0,0.6,0,0.9,0
		c8.9,0,10.5-0.1,17-1.3c14.1-2.4,27.7-8.3,37.6-16.2c18.4-14.8,27.5-35.1,25.6-56.8c-1.3-15-7.3-29.8-17.5-43.6
		c-4.2-5.7-8-10-14.1-16.1c-36.5-36.4-88.7-61.3-142.5-67.8c-10-1.2-19.9-1.8-29.7-1.8c-19.2,0-38.2,2.3-56.6,6.9
		c-7,1.7-11.6,3.1-19.2,5.7c-43.5,14.6-83.6,41.8-114.5,77.7c-35.6,41.4-57.6,94.1-63,150.6c-1.5,15.5-1.6,33.1-0.3,48.1
		c0.2,2.3,0.3,4.4,0.2,4.6c-0.1,0.2-0.3,0.4-0.5,0.4c-1,0-3.3-1.4-8.7-5c-21.5-14.3-38.3-33.3-50.1-56.7
		c-11-21.6-17.1-44.9-18.7-70.9c-0.6-9.9-0.1-26.9,1.1-37c4.4-36.1,16.3-66.8,35.3-90.5c16.9-21.2,39.9-36.5,63.9-42.5
		c6.7-1.7,9.5-2.1,19.9-3.2c7.8-0.8,9.9-1.1,13.7-1.8c9.1-1.8,16.1-5.5,23-12.1c11.7-11.1,22.2-31.7,25.3-49.5
		c1.7-9.8,1.6-20.8-0.1-29.5c-2.3-11.1-7.1-21.5-13.8-29.8c-9.6-12-23.9-19.9-41.1-22.9C457.7,19.9,452.8,19.5,447.7,19.5
		L447.7,19.5z"/>
	<g>
		<g id="Rapids">
			<path d="M1356.3,669.6c-1.9-6.2-5.7-11.2-11.5-14.9c-4.6-2.9-8.1-7-10.6-12.2c-2.5-5.2-4.4-12.3-5.6-21.5
				c-1.3-9.1-2.3-21.4-3.1-36.8c-0.4-17.4-4.2-32.7-11.2-45.8c-7.1-13.1-16.2-23.9-27.4-32.4c-5.5-4.2-11.4-7.7-17.5-10.6
				c12.2-5.6,23.2-13,33.1-22.4c11.6-11,20.7-24.1,27.4-39.2c6.6-15.2,10-31.4,10-48.9c0-24.1-5.5-45.4-16.5-63.8
				c-11-18.5-25.9-33-44.5-43.6c-18.7-10.6-39.7-15.9-62.9-15.9H1044c-7.1,0-13,2.4-17.8,7.2c-4.8,4.8-7.2,10.7-7.2,17.7v385.5
				c0,7.1,2.8,13.1,8.4,18.1c5.6,5,12.3,7.5,20.2,7.5c7.1,0,12.7-2.5,16.8-7.5c4.1-5,6.2-11,6.2-18.1V520.8h131.4
				c9.1,0,18.1,1,26.8,3.1c8.7,2.1,16.6,5.8,23.7,11.2c7,5.4,12.6,12.5,16.8,21.2c4.2,8.7,6.2,19.7,6.2,33c0,23.7,2.1,42.3,6.2,56
				c4.2,13.7,9.3,24.2,15.6,31.4c6.2,7.3,12.7,12.8,19.3,16.5c3.3,2.1,7.3,3.3,11.8,3.7c4.6,0.4,9.1-0.1,13.7-1.5
				c4.6-1.5,8.1-4.1,10.6-7.8C1357,681.9,1358.1,675.8,1356.3,669.6z M1249.8,463.5c-10.6,7.5-21.9,11.6-33.9,12.5h-145.1V309.7h142
				c21.2,0,38.7,7.3,52.6,21.8c13.9,14.5,20.9,32.8,20.9,54.8c0,17-3.4,32.3-10.3,45.8C1269.1,445.5,1260.4,456,1249.8,463.5z"/>
			<path d="M1714,379.7c-4.6-4.8-10.6-7.2-18.1-7.2c-7.1,0-13,2.4-17.8,7.2c-4.8,4.8-7.2,10.7-7.2,17.7v24.2
				c-5.3-7.7-11.9-15-19.6-21.7c-11.4-10-24.8-17.8-40.2-23.7c-15.4-5.8-32-8.7-49.8-8.7c-27.8,0-52.8,7.2-75,21.5
				c-22.2,14.3-39.9,34-52.9,59.2c-13.1,25.1-19.6,54.1-19.6,86.9c0,32.4,6.4,61.3,19.3,86.6c12.9,25.3,30.6,45.4,53.3,60.1
				c22.6,14.7,48,22.1,76.3,22.1c17,0,32.8-3,47.3-9c14.5-6,27.2-13.7,38-23c9.4-8.2,17.1-16.9,23.1-26.1v26.4
				c0,7.1,2.4,13.1,7.2,18.1c4.8,5,10.7,7.5,17.8,7.5c7,0,13-2.5,17.7-7.5c4.8-5,7.2-11,7.2-18.1V397.5
				C1720.9,390.4,1718.6,384.5,1714,379.7z M1660.5,597.7c-9.2,18.5-21.7,33.1-37.7,43.9c-16,10.8-34.3,16.2-55.1,16.2
				c-20.3,0-38.5-5.4-54.5-16.2c-16-10.8-28.5-25.4-37.7-43.9c-9.2-18.5-13.7-39.3-13.7-62.6c0-23.7,4.6-44.6,13.7-62.9
				c9.1-18.3,21.7-32.6,37.7-43c16-10.4,34.1-15.6,54.5-15.6c20.8,0,39.1,5.3,55.1,15.9c16,10.6,28.5,25.1,37.7,43.6
				c9.1,18.5,13.7,39.1,13.7,61.9C1674.2,558.4,1669.6,579.2,1660.5,597.7z"/>
			<path d="M2101.1,450.4c-13.1-24.9-30.8-44.4-53.2-58.5c-22.4-14.1-47.7-21.2-76-21.2c-14.1,0-27.7,2.1-40.8,6.2
				c-13.1,4.2-24.9,9.9-35.5,17.1c-10.6,7.3-19.5,15.7-26.8,25.2c-2.2,2.9-4.2,5.8-5.9,8.7v-29.2c0-7.1-2.3-13-6.8-17.8
				c-4.6-4.8-10.6-7.2-18.1-7.2c-7.1,0-13,2.4-17.8,7.2c-4.8,4.8-7.2,10.7-7.2,17.8v397.9c0,7.5,2.4,13.6,7.2,18.4
				c4.8,4.8,10.7,7.2,17.8,7.2c7.5,0,13.5-2.5,18.1-7.5c4.6-5,6.8-11,6.8-18.1V647.2c0.8,1.1,1.6,2.2,2.5,3.4
				c7.5,9.8,16.7,18.5,27.7,26.2c11,7.7,23.2,13.9,36.8,18.7c13.5,4.7,27.9,7.2,43.3,7.2c27.8,0,52.8-7.2,75-21.5
				c22.2-14.3,39.9-34,52.9-59.1c13.1-25.1,19.6-53.7,19.6-85.6C2120.7,504,2114.1,475.3,2101.1,450.4z M2058.4,598
				c-9.2,18.3-21.6,32.6-37.4,43c-15.8,10.4-34,15.6-54.8,15.6s-39.1-5.2-55.1-15.6c-16-10.4-28.4-24.7-37.4-43
				c-8.9-18.3-13.4-38.8-13.4-61.6c0-23.2,4.5-43.8,13.4-61.6c8.9-17.8,21.4-32,37.4-42.3c16-10.4,34.3-15.6,55.1-15.6
				s39,5.2,54.8,15.6c15.8,10.4,28.2,24.5,37.4,42.3c9.1,17.9,13.7,38.4,13.7,61.6C2072.1,559.2,2067.5,579.7,2058.4,598z"/>
			<path d="M2215.3,329c-10.4,0-18.1-2.1-23-6.2c-5-4.1-7.5-10.6-7.5-19.3v-8.7c0-8.7,2.7-15.1,8.1-19.3c5.4-4.1,13.1-6.2,23-6.2
				s17.4,2.1,22.4,6.2c5,4.2,7.5,10.6,7.5,19.3v8.7c0,8.7-2.6,15.2-7.8,19.3C2232.8,326.9,2225.3,329,2215.3,329z M2240.2,672.1
				c0,7.1-2.4,13.1-7.2,18.1c-4.8,5-10.7,7.5-17.7,7.5c-7.5,0-13.5-2.5-18.1-7.5c-4.6-5-6.8-11-6.8-18.1V395.6
				c0-7.1,2.4-13,7.2-17.7c4.8-4.8,10.7-7.2,17.7-7.2c7.1,0,13,2.4,17.7,7.2c4.8,4.8,7.2,10.7,7.2,17.7V672.1z"/>
			<path d="M2610.1,244c-4.6-4.7-10.6-7.2-18.1-7.2c-7.1,0-13,2.4-17.7,7.2c-4.8,4.8-7.2,10.7-7.2,17.8v160.7
				c-5.6-8-12.4-15.5-20.6-22.4c-11.6-10-25-17.8-40.1-23.7c-15.2-5.8-31.5-8.7-48.9-8.7c-27.8,0-52.8,7.2-75,21.5
				c-22.2,14.3-39.9,34.2-52.9,59.5c-13.1,25.3-19.6,54.4-19.6,87.2c0,32.4,6.5,61.2,19.6,86.5c13.1,25.3,30.8,45.3,53.2,59.8
				c22.4,14.5,47.7,21.8,76,21.8c17,0,32.8-3.1,47.3-9.3c14.5-6.2,27.3-14.1,38.3-23.7c9.4-8.2,17-16.9,22.7-26.1v27.3
				c0,7.1,2.4,13.1,7.2,18.1c4.8,5,10.7,7.5,17.7,7.5s13-2.5,17.8-7.5c4.7-5,7.2-11,7.2-18.1V261.7
				C2617,254.7,2614.7,248.8,2610.1,244z M2556.6,598.3c-9.1,18.5-21.6,33-37.4,43.6c-15.8,10.6-34.2,15.9-55.4,15.9
				c-20.3,0-38.5-5.4-54.5-16.2c-16-10.8-28.6-25.4-37.7-43.9c-9.1-18.5-13.7-39.1-13.7-61.9c0-23.7,4.6-44.6,13.7-62.9
				c9.1-18.3,21.7-32.7,37.7-43.3c16-10.6,34.1-15.9,54.5-15.9c20.7,0,39.1,5.3,55.1,15.9c16,10.6,28.5,25,37.7,43.3
				c9.1,18.3,13.7,39.2,13.7,62.9C2570.3,559,2565.7,579.8,2556.6,598.3z"/>
			<path d="M2691.1,646.6c-3.7-5.4-5.4-11.1-5-17.1c0.4-6,3.9-11.3,10.6-15.9c4.1-2.9,9-4.1,14.6-3.7c5.6,0.4,10.7,3.1,15.3,8.1
				c11.6,13.7,24.9,24.6,39.9,32.7c14.9,8.1,33.2,12.1,54.8,12.1c10-0.4,19.9-2.1,29.9-5c10-2.9,18.4-8,25.2-15.3
				c6.9-7.3,10.3-16.9,10.3-29c0-11.6-3.5-20.9-10.6-27.7c-7.1-6.9-16.2-12.5-27.4-16.8s-23.5-8.2-36.7-11.5
				c-13.7-3.7-27.2-8-40.5-12.8c-13.3-4.8-25.2-10.8-35.8-18.1c-10.6-7.3-19.1-16.4-25.5-27.4c-6.4-11-9.7-24.4-9.7-40.2
				c0-18.7,5.1-34.9,15.3-48.6c10.2-13.7,23.9-24.3,41.1-31.8c17.2-7.5,36-11.2,56.4-11.2c11.6,0,23.8,1.4,36.4,4
				c12.7,2.7,25,7.3,37.1,13.7c12,6.4,22.6,15.3,31.8,26.5c3.7,4.2,5.8,9.3,6.2,15.6c0.4,6.2-2.3,11.8-8.1,16.8
				c-4.6,3.3-9.7,4.8-15.3,4.4c-5.6-0.4-10.3-2.5-14-6.2c-8.7-10.4-19.6-18.4-32.7-24c-13.1-5.6-27.5-8.4-43.3-8.4
				c-10,0-19.7,1.5-29.3,4.4c-9.6,2.9-17.5,7.8-24,14.6c-6.4,6.8-9.7,16.3-9.7,28.3c0.4,11.2,4.1,20.3,11.2,27.4
				c7.1,7.1,16.6,12.8,28.6,17.1c12,4.4,25.3,8.6,39.9,12.8c13.3,3.3,26,7.2,38.3,11.5c12.2,4.4,23.4,10.1,33.3,17.1
				c10,7.1,17.8,16.1,23.7,27.1c5.8,11,8.7,24.8,8.7,41.4c0,19.1-5.4,35.6-16.2,49.5c-10.8,13.9-25,24.5-42.7,31.8
				c-17.6,7.3-36.6,10.9-57,10.9c-22.8,0-45.4-4.4-67.6-13.1C2726.5,682.1,2707.3,667.3,2691.1,646.6z"/>
		</g>
	</g>
</g>
</svg>
