<?xml version="1.0"?>
<svg xmlns="http://www.w3.org/2000/svg" xmlns:xlink="http://www.w3.org/1999/xlink" xmlns:svgjs="http://svgjs.com/svgjs" version="1.1" width="512" height="512" x="0" y="0" viewBox="0 0 512.115 512.115" style="enable-background:new 0 0 512 512" xml:space="preserve" class=""><g><g xmlns="http://www.w3.org/2000/svg"><path d="m437.077 75.038c-100.042-100.043-261.982-100.058-362.039 0-100.044 100.045-100.056 261.982 0 362.039 100.042 100.043 261.982 100.058 362.039 0 100.044-100.045 100.056-261.982 0-362.039zm-181.02 405.019c-123.514 0-224-100.486-224-224s100.486-224 224-224 224 100.486 224 224-100.486 224-224 224z" fill="#1bb14d" data-original="#000000" style="" class=""/><path d="m448.799 220.186c-.593-1.252-63.168-108.46-63.712-109.243-2.299-3.322-5.871-5.755-10.041-6.581-2.35-.465 11.195-.305-234.875-.305-5.56 0-10.825 2.941-13.714 7.769-.06.1-62.822 107.433-63.588 109.398-2.218 5.698-.957 11.953 2.828 16.304.095.109 178.654 205.765 180.82 207.374 4.951 3.676 11.789 4.267 17.436 1.058 3.61-2.049-7.951 10.544 182.41-208.371 4.431-5.169 5.031-11.928 2.436-17.403zm-233.547 22.843h81.611l-40.806 134.077zm4.294-32 36.512-73.023 36.512 73.023zm186.941 0h-62.141l28.68-57.361zm-60.432-74.972-27.597 55.194-27.598-55.194zm-124.8 0-27.598 55.194-27.597-55.194zm-82.167 17.611 28.68 57.361h-62.141zm42.714 89.361 37.108 121.926-106.022-121.926zm111.403 121.925 37.108-121.926h68.915z" fill="#1bb14d" data-original="#000000" style="" class=""/></g></g></svg>
