<?xml version="1.0"?>
<svg xmlns="http://www.w3.org/2000/svg" xmlns:xlink="http://www.w3.org/1999/xlink" xmlns:svgjs="http://svgjs.com/svgjs" version="1.1" width="512" height="512" x="0" y="0" viewBox="0 0 512 512" style="enable-background:new 0 0 512 512" xml:space="preserve" class=""><g><g xmlns="http://www.w3.org/2000/svg"><path d="m512 94c0-25.364-20.636-46-46-46h-420c-25.364 0-46 20.636-46 46v84c0 11.456 4.219 21.939 11.173 30-6.954 8.061-11.173 18.544-11.173 30v84c0 25.364 20.636 46 46 46h162v64h-96c-8.836 0-16 7.164-16 16s7.164 16 16 16h288c8.836 0 16-7.164 16-16s-7.164-16-16-16h-96v-64h162c25.364 0 46-20.636 46-46v-84c0-11.456-4.219-21.939-11.173-30 6.954-8.061 11.173-18.544 11.173-30zm-480 0c0-7.72 6.28-14 14-14h420c7.72 0 14 6.28 14 14v84c0 7.72-6.28 14-14 14h-420c-7.72 0-14-6.28-14-14zm240 338h-32v-64h32zm208-110c0 7.72-6.28 14-14 14h-420c-7.72 0-14-6.28-14-14v-84c0-7.72 6.28-14 14-14h420c7.72 0 14 6.28 14 14z" fill="#ffffff" data-original="#000000" style="" class=""/><path d="m112 160c-13.233 0-24-10.767-24-24s10.767-24 24-24 24 10.767 24 24-10.767 24-24 24z" fill="#ffffff" data-original="#000000" style="" class=""/><path d="m112 304c-13.233 0-24-10.767-24-24s10.767-24 24-24 24 10.767 24 24-10.767 24-24 24z" fill="#ffffff" data-original="#000000" style="" class=""/><path d="m408 152h-224c-8.836 0-16-7.164-16-16s7.164-16 16-16h224c8.836 0 16 7.164 16 16s-7.164 16-16 16z" fill="#ffffff" data-original="#000000" style="" class=""/><path d="m408 296h-224c-8.836 0-16-7.164-16-16s7.164-16 16-16h224c8.836 0 16 7.164 16 16s-7.164 16-16 16z" fill="#ffffff" data-original="#000000" style="" class=""/></g></g></svg>
