<?xml version="1.0"?>
<svg xmlns="http://www.w3.org/2000/svg" xmlns:xlink="http://www.w3.org/1999/xlink" xmlns:svgjs="http://svgjs.com/svgjs" version="1.1" width="512" height="512" x="0" y="0" viewBox="0 0 511.331 511.331" style="enable-background:new 0 0 512 512" xml:space="preserve" class=""><g><path xmlns="http://www.w3.org/2000/svg" d="m508.296 394.508c4.975-8.227 3.777-18.856-3.174-25.75l-42.605-42.605c-8.201-8.201-21.498-8.201-29.699 0-8.2 8.201-8.2 21.498 0 29.699l6.814 6.813h-370.632c-14.888 0-27-12.112-27-26.999l.003-112.003c0-11.599-9.401-21.001-20.999-21.001-11.563 0-21.001 9.368-21.001 20.999l-.003 112.004c0 38.047 30.953 69 69 69h370.637l-6.818 6.816c-8.202 8.2-8.203 21.496-.003 29.698 8.199 8.201 21.495 8.204 29.698.003 45.324-45.312 43.887-43.531 45.782-46.674z" fill="#ffffff" data-original="#000000" style="" class=""/><path xmlns="http://www.w3.org/2000/svg" d="m2.886 117.082c-4.885 8.338-3.367 18.813 3.289 25.452l42.645 42.645c4.101 4.101 9.476 6.15 14.85 6.15 18.534 0 28.125-22.573 14.85-35.85l-6.815-6.814h327.965c14.888 0 27 12.112 27 27v5.664h-299c-11.598 0-21 9.402-21 21s9.402 21 21 21h299v53.67c0 11.598 9.402 21 21 21s21-9.402 21-21v-101.334c0-38.047-30.953-69-69-69h-327.969l6.817-6.815c8.202-8.2 8.203-21.496.003-29.698-8.198-8.2-21.494-8.204-29.698-.003-46.089 46.077-44 43.613-45.937 46.933z" fill="#ffffff" data-original="#000000" style="" class=""/></g></svg>
